<svg width="16" height="23" viewBox="0 0 16 23" fill="none" xmlns="http://www.w3.org/2000/svg">
<path d="M0 10.4614H3.48718V22.9742H0V10.4614Z" fill="#00304A"/>
<path d="M7.65128 0.0669944C7.73333 0.0259688 7.83589 -0.0150567 7.93846 0.00545614C8.02051 0.00545614 8.10256 -0.015057 8.1641 0.0259687C8.34871 0.0669943 8.51281 0.169558 8.63589 0.292635C9.18974 0.846481 9.74358 1.40033 10.2974 1.93366C10.359 1.9952 10.4205 2.03623 10.4615 2.11828C9.84615 2.75417 9.21025 3.36956 8.59487 3.98494C8.38974 4.19007 8.18461 4.3952 7.97948 4.60033C7.71281 4.86699 7.44615 5.13366 7.17948 5.40033C5.96922 6.61058 4.75897 7.82084 3.54871 9.05161C2.99487 9.62597 2.42051 10.2003 1.84615 10.7542C1.23076 11.3696 0.635892 11.9849 0.0205078 12.5798C0.0205078 11.2465 0.0205078 9.91315 0.0205078 8.57981C0.0205078 8.33366 0.0205078 8.06699 0.0205078 7.82084C0.0205078 7.77982 0.0615336 7.73879 0.0615336 7.67725C0.102559 7.61571 0.123072 7.55417 0.164098 7.49264C0.246149 7.36956 0.369225 7.28751 0.451277 7.18494C2.7282 4.88751 5.02563 2.59007 7.30256 0.292635C7.40512 0.210584 7.50769 0.128533 7.65128 0.0669944Z" fill="#FFA502"/>
<path d="M1.84615 10.7541C2.42051 10.1797 2.97436 9.62587 3.54872 9.05151C3.54872 10.3438 3.54872 11.6361 3.54872 12.9284C3.54872 14.0977 3.54872 15.2874 3.54872 16.4566C2.62564 16.4566 1.70256 16.4566 0.779488 16.4566C0.389744 16.4156 0.0615385 16.0874 0 15.6977C0 14.6515 0 13.6259 0 12.5797C0.635897 11.9848 1.23077 11.3695 1.84615 10.7541Z" fill="#00304A"/>
<path d="M3.4873 12.9231C6.46166 12.9231 9.47702 12.9285 12.4104 12.949C12.4104 14.1183 12.3898 15.308 12.3898 16.4773C9.43599 16.4567 6.48215 16.4567 3.5283 16.4362C3.54881 15.267 3.4873 14.0513 3.4873 12.9231Z" fill="#00304A"/>
<path d="M12.4102 8.61548H15.9402L15.9999 22.9745H12.3076L12.4102 8.61548Z" fill="#00304A"/>
<path d="M8.34872 0.0669944C8.26667 0.0259688 8.16411 -0.0150567 8.06154 0.00545614C7.97949 0.00545614 7.89744 -0.015057 7.8359 0.0259687C7.65129 0.0669943 7.48719 0.169558 7.36411 0.292635C6.81026 0.846481 6.25642 1.40033 5.70257 1.93366C5.64103 1.9952 5.57949 2.03623 5.53847 2.11828C6.15385 2.75417 6.78975 3.36956 7.40513 3.98494C7.61026 4.19007 7.81539 4.3952 8.02052 4.60033C8.28719 4.86699 8.55385 5.13366 8.82052 5.40033C10.0308 6.61058 11.241 7.82084 12.4513 9.05161C13.0051 9.62597 13.5795 10.2003 14.1539 10.7542C14.7692 11.3696 15.3641 11.9849 15.9795 12.5798C15.9795 11.2465 15.9795 9.91315 15.9795 8.57981C15.9795 8.33366 15.9795 8.06699 15.9795 7.82084C15.9795 7.77982 15.9385 7.73879 15.9385 7.67725C15.8974 7.61571 15.8769 7.55417 15.8359 7.49264C15.7539 7.36956 15.6308 7.28751 15.5487 7.18494C13.2718 4.88751 10.9744 2.59007 8.69744 0.292635C8.59488 0.210584 8.49231 0.128533 8.34872 0.0669944Z" fill="#FFA502"/>
</svg>
