<svg width="15" height="15" viewBox="0 0 15 15" fill="none" xmlns="http://www.w3.org/2000/svg">
<path d="M15 15L11 15L11 8L15 8L15 15Z" fill="#FFA502"/>
<path d="M15 8L11 8L11 -2.00567e-07L15 1.49124e-07L15 8Z" fill="#00304A"/>
<path d="M4 10L4 8L11 8L11 10L4 10Z" fill="#FFA502"/>
<path d="M4 8L4 6L11 6L11 8L4 8Z" fill="#00304A"/>
<path d="M4 15L9.44419e-08 15L7.06401e-07 8L4 8L4 15Z" fill="#FFA502"/>
<path d="M4 8L9.44419e-08 8L7.93824e-07 -4.689e-07L4 -1.19209e-07L4 8Z" fill="#00304A"/>
</svg>
