<svg width="80" height="80" viewBox="0 0 80 80" fill="none" xmlns="http://www.w3.org/2000/svg">
<path d="M76 19.2H20.72C20.32 14.72 16.56 11.2 12 11.2C7.12001 11.2 3.20001 15.12 3.20001 20V60C3.20001 64.88 7.12001 68.8 12 68.8H76C76.48 68.8 76.8 68.48 76.8 68V20C76.8 19.52 76.48 19.2 76 19.2ZM4.80001 20C4.80001 16 8.00001 12.8 12 12.8C16 12.8 19.2 16 19.2 20V54.96C17.6 52.72 14.96 51.2 12 51.2C9.04001 51.2 6.40001 52.72 4.80001 54.96V20ZM75.2 67.2H12C8.00001 67.2 4.80001 64 4.80001 60C4.80001 56 8.00001 52.8 12 52.8C16 52.8 19.2 56 19.2 60C19.2 60.48 19.52 60.8 20 60.8C20.48 60.8 20.8 60.48 20.8 60V20.8H75.2V67.2Z" fill="black"/>
<path d="M33.68 46.88L32 58.32C31.92 58.72 32.24 59.12 32.64 59.2C32.72 59.2 32.72 59.2 32.8 59.2C33.12 59.2 33.44 58.96 33.6 58.64L36.56 48.88C37.6 49.36 38.72 49.6 40 49.6C41.28 49.6 42.4 49.36 43.52 48.88L46.4 58.64C46.48 58.96 46.8 59.2 47.2 59.2C47.28 59.2 47.28 59.2 47.36 59.2C47.76 59.12 48 58.72 48 58.32L46.32 46.96C47.84 45.36 48.8 43.2 48.8 40.88C48.8 40.4 48.48 40.08 48 40.08C47.52 40.08 47.2 40.4 47.2 40.88C47.2 42.32 46.72 43.68 46 44.88L44 31.12C44 30.24 43.68 29.52 43.2 28.88V26.88C43.2 25.36 42.16 24.08 40.8 24.08H39.2C37.84 24.08 36.8 25.36 36.8 26.88V28.8C36.32 29.44 36 30.24 36 31.04L34 44.8C33.28 43.68 32.8 42.32 32.8 40.8C32.8 40.32 32.48 40 32 40C31.52 40 31.2 40.32 31.2 40.8C31.2 43.2 32.16 45.36 33.68 46.88ZM44.48 46.48L41.04 35.04C41.68 34.88 42.32 34.48 42.8 34L44.64 46.24C44.56 46.4 44.48 46.4 44.48 46.48ZM42.4 31.2C42.4 32.56 41.36 33.6 40 33.6C38.64 33.6 37.6 32.56 37.6 31.2C37.6 29.84 38.64 28.8 40 28.8C41.36 28.8 42.4 29.84 42.4 31.2ZM37.2 34.08C37.68 34.56 38.32 34.88 38.96 35.12L35.52 46.56C35.44 46.48 35.44 46.48 35.36 46.4L37.2 34.08ZM40 48C38.88 48 37.92 47.76 36.96 47.28L40 37.2L43.04 47.36C42.08 47.76 41.12 48 40 48ZM39.2 25.6H40.8C41.2 25.6 41.6 26.16 41.6 26.8V27.52C41.12 27.28 40.56 27.2 40 27.2C39.44 27.2 38.88 27.36 38.4 27.52V26.8C38.4 26.16 38.8 25.6 39.2 25.6Z" fill="#3A98FF"/>
<path d="M54.4 52.16C54.4 52.24 54.4 52.24 54.48 52.32L57.68 58.72C57.84 58.96 58.08 59.2 58.4 59.2C58.72 59.2 58.96 59.04 59.12 58.72L62.32 52.32C62.32 52.24 62.32 52.24 62.4 52.16C62.4 52.08 62.4 52.08 62.4 52V29.6V28C62.4 25.76 60.64 24 58.4 24C56.16 24 54.4 25.76 54.4 28V29.6V52C54.4 52.08 54.4 52.16 54.4 52.16ZM56 51.2V33.6H57.6V51.2H56ZM59.2 33.6H60.8V51.2H59.2V33.6ZM60.8 32H56V30.4H60.8V32ZM58.4 56.64L56.48 52.8H60.32L58.4 56.64ZM56 28C56 26.64 57.04 25.6 58.4 25.6C59.76 25.6 60.8 26.64 60.8 28V28.8H56V28Z" fill="#3A98FF"/>
</svg>
