<svg width="80" height="80" viewBox="0 0 80 80" fill="none" xmlns="http://www.w3.org/2000/svg">
<path d="M10.3125 38.1445C9.44969 38.1445 8.75 38.8441 8.75 39.707V64.707C8.75 65.5698 9.44969 66.2695 10.3125 66.2695C11.1753 66.2695 11.875 65.5698 11.875 64.707V39.707C11.875 38.8441 11.1753 38.1445 10.3125 38.1445Z" fill="#3A98FF"/>
<path d="M66.5625 6.89453C65.6997 6.89453 65 7.59422 65 8.45703V25.6445C65 26.5075 65.6997 27.207 66.5625 27.207C67.4253 27.207 68.125 26.5075 68.125 25.6445V8.45703C68.125 7.59422 67.4253 6.89453 66.5625 6.89453Z" fill="#3A98FF"/>
<path d="M54.0625 11.6289C53.1997 11.6289 52.5 12.3286 52.5 13.1914V33.457C52.5 34.32 53.1997 35.0195 54.0625 35.0195C54.9253 35.0195 55.625 34.32 55.625 33.457V13.1914C55.625 12.3284 54.9253 11.6289 54.0625 11.6289Z" fill="#3A98FF"/>
<path d="M43.125 18.2585C42.2622 18.2585 41.5625 18.9582 41.5625 19.821V41.2695C41.5625 42.1323 42.2622 42.832 43.125 42.832C43.9878 42.832 44.6875 42.1323 44.6875 41.2695V19.821C44.6875 18.9582 43.9878 18.2585 43.125 18.2585Z" fill="#3A98FF"/>
<path d="M32.1875 24.8867C31.3245 24.8867 30.625 25.5863 30.625 26.4492V49.082C30.625 49.9448 31.3245 50.6445 32.1875 50.6445C33.0505 50.6445 33.75 49.9448 33.75 49.082V26.4492C33.75 25.5864 33.0505 24.8867 32.1875 24.8867Z" fill="#3A98FF"/>
<path d="M21.25 31.5164C20.387 31.5164 19.6875 32.216 19.6875 33.0789V56.8945C19.6875 57.7573 20.387 58.457 21.25 58.457C22.113 58.457 22.8125 57.7573 22.8125 56.8945V33.0789C22.8125 32.216 22.113 31.5164 21.25 31.5164Z" fill="#3A98FF"/>
<path d="M78.2812 70.957H75.9375V25.6445C75.9375 24.7816 75.2378 24.082 74.375 24.082H60.3125C59.4497 24.082 58.75 24.7816 58.75 25.6445V31.8945C55.402 31.8945 52.9159 31.8945 49.375 31.8945C48.5122 31.8945 47.8125 32.5941 47.8125 33.457V39.707C44.8697 39.707 42.6542 39.707 38.4375 39.707C37.5745 39.707 36.875 40.4067 36.875 41.2695V47.5195H27.5C26.637 47.5195 25.9375 48.2192 25.9375 49.082V55.332H16.5625C15.6997 55.332 15 56.0317 15 56.8945V63.1445H5.625C4.76219 63.1445 4.0625 63.8442 4.0625 64.707V70.957H1.71875C0.855781 70.957 0.15625 71.6567 0.15625 72.5195C0.15625 73.3823 0.855781 74.082 1.71875 74.082C3.67109 74.082 76.3794 74.082 78.2812 74.082C79.1441 74.082 79.8438 73.3823 79.8438 72.5195C79.8438 71.6567 79.1441 70.957 78.2812 70.957ZM7.1875 66.2695C8.81609 66.2695 18.9212 66.2695 20.4688 66.2695C21.3317 66.2695 22.0312 65.5698 22.0312 64.707C22.0312 63.8442 21.3317 63.1445 20.4688 63.1445H18.125V58.457C19.2094 58.457 29.9895 58.457 31.4062 58.457C32.2692 58.457 32.9688 57.7573 32.9688 56.8945C32.9688 56.0317 32.2692 55.332 31.4062 55.332H29.0625V50.6445C30.7944 50.6445 40.8045 50.6445 42.3438 50.6445C43.2066 50.6445 43.9062 49.9448 43.9062 49.082C43.9062 48.2192 43.2066 47.5195 42.3438 47.5195H40V42.832C42.8225 42.832 50.4444 42.832 53.2812 42.832C54.1441 42.832 54.8438 42.1323 54.8438 41.2695C54.8438 40.4067 54.1441 39.707 53.2812 39.707H50.9375V35.0195C53.7517 35.0195 61.4145 35.0195 64.2188 35.0195C65.0816 35.0195 65.7812 34.32 65.7812 33.457C65.7812 32.5941 65.0816 31.8945 64.2188 31.8945H61.875V27.207H72.8125V70.957H7.1875V66.2695Z" fill="#283954"/>
<path d="M72.6172 5.91797H63.2422C62.9567 5.91797 62.6766 5.99625 62.4323 6.14422L11.2431 37.168H6.99219C6.12938 37.168 5.42969 37.8675 5.42969 38.7305C5.42969 39.5934 6.12938 40.293 6.99219 40.293H11.6797C11.9652 40.293 12.2453 40.2147 12.4895 40.0667L63.6787 9.04297H72.6172C73.48 9.04297 74.1797 8.34328 74.1797 7.48047C74.1797 6.61766 73.48 5.91797 72.6172 5.91797Z" fill="#283954"/>
</svg>
