<svg width="93" height="80" viewBox="0 0 93 80" fill="none" xmlns="http://www.w3.org/2000/svg">
<path d="M79.8077 24.5681C78.0344 24.5677 76.3154 25.1801 74.9417 26.3015C73.568 27.4229 72.6239 28.9845 72.2692 30.722H62.8846V23.0296C62.8854 22.9101 62.8699 22.7911 62.8385 22.6758C62.8137 22.5577 62.7723 22.4437 62.7154 22.3373C62.6093 22.1131 62.4445 21.9217 62.2385 21.7835C62.1754 21.737 62.1085 21.6958 62.0385 21.6604C61.9674 21.6166 61.8894 21.5854 61.8077 21.5681L47.9923 16.9527C47.673 16.8449 47.327 16.8449 47.0077 16.9527L33.1923 21.5681C33.1106 21.5854 33.0326 21.6166 32.9615 21.6604C32.8916 21.6958 32.8247 21.737 32.7615 21.7835C32.5555 21.9217 32.3907 22.1131 32.2846 22.3373C32.2277 22.4437 32.1863 22.5577 32.1615 22.6758C32.1301 22.7911 32.1146 22.9101 32.1154 23.0296V30.722H22.7308C22.3512 28.8525 21.2905 27.1908 19.7546 26.0594C18.2187 24.928 16.3172 24.4076 14.4192 24.5993C12.5213 24.791 10.7623 25.6811 9.48366 27.0968C8.20505 28.5125 7.49809 30.3528 7.5 32.2604V66.1066C7.5 67.1167 7.69897 68.117 8.08555 69.0503C8.47212 69.9836 9.03873 70.8315 9.75303 71.5458C10.4673 72.2601 11.3153 72.8267 12.2486 73.2133C13.1819 73.5999 14.1821 73.7989 15.1923 73.7989H79.8077C80.8179 73.7989 81.8181 73.5999 82.7514 73.2133C83.6847 72.8267 84.5327 72.2601 85.247 71.5458C85.9613 70.8315 86.5279 69.9836 86.9145 69.0503C87.301 68.117 87.5 67.1167 87.5 66.1066V32.2604C87.5 30.2203 86.6896 28.2637 85.247 26.8211C83.8044 25.3785 81.8478 24.5681 79.8077 24.5681ZM75.1923 32.2604C75.1923 31.0363 75.6786 29.8624 76.5441 28.9968C77.4097 28.1313 78.5836 27.645 79.8077 27.645C81.0318 27.645 82.2057 28.1313 83.0713 28.9968C83.9368 29.8624 84.4231 31.0363 84.4231 32.2604V59.9527C84.4077 59.9373 84.3923 59.9373 84.3769 59.9219C84.2231 59.8143 84.0846 59.7066 83.9308 59.6143C83.7462 59.5066 83.5769 59.3989 83.3923 59.3066C83.2174 59.2102 83.0377 59.1229 82.8538 59.045C82.6692 58.9681 82.5 58.8912 82.3154 58.8296C82.3 58.8296 82.2692 58.8143 82.2538 58.8143C82.1 58.752 81.9402 58.7056 81.7769 58.6758L81.6077 58.6296C81.4692 58.5989 81.3154 58.5681 81.1615 58.5373C80.7147 58.4568 80.2617 58.4157 79.8077 58.4143C78.143 58.4126 76.523 58.9526 75.1923 59.9527V32.2604ZM47.5 20.0296L56.4846 23.0296L47.5 26.0296L38.5154 23.0296L47.5 20.0296ZM59.8077 25.1681V40.3835L49.0385 43.9835V28.7527L59.8077 25.1681ZM35.1923 25.1681L45.9615 28.7527V43.9835L35.1923 40.3835V25.1681ZM10.5769 32.2604C10.5769 31.0363 11.0632 29.8624 11.9287 28.9968C12.7943 28.1313 13.9682 27.645 15.1923 27.645C16.4164 27.645 17.5903 28.1313 18.4559 28.9968C19.3214 29.8624 19.8077 31.0363 19.8077 32.2604V59.9527C18.477 58.9526 16.857 58.4126 15.1923 58.4143C14.7383 58.4157 14.2853 58.4568 13.8385 58.5373C13.6846 58.5681 13.5308 58.5989 13.3923 58.6296L13.2231 58.6758C13.0598 58.7056 12.9 58.752 12.7462 58.8143C12.7308 58.8143 12.7 58.8296 12.6846 58.8296C12.5 58.8912 12.3308 58.9681 12.1462 59.045C11.9623 59.1229 11.7826 59.2102 11.6077 59.3066C11.4231 59.3989 11.2538 59.5066 11.0692 59.6143C10.9154 59.7066 10.7769 59.8143 10.6231 59.9219C10.6077 59.9373 10.5923 59.9373 10.5769 59.9527V32.2604ZM79.8077 70.7219H15.1923C14.2795 70.7219 13.3871 70.4513 12.6281 69.9441C11.8691 69.437 11.2776 68.7161 10.9283 67.8728C10.5789 67.0294 10.4875 66.1014 10.6656 65.2061C10.8437 64.3108 11.2833 63.4885 11.9287 62.843C12.5742 62.1975 13.3966 61.7579 14.2919 61.5799C15.1872 61.4018 16.1152 61.4932 16.9585 61.8425C17.8019 62.1918 18.5227 62.7834 19.0299 63.5424C19.537 64.3014 19.8077 65.1937 19.8077 66.1066C19.8077 66.5146 19.9698 66.9059 20.2583 67.1944C20.5468 67.4829 20.9381 67.645 21.3462 67.645C21.7542 67.645 22.1455 67.4829 22.434 67.1944C22.7225 66.9059 22.8846 66.5146 22.8846 66.1066V33.7989H32.1154V41.4912C32.1177 41.8129 32.2195 42.1261 32.4068 42.3878C32.5941 42.6494 32.8577 42.8467 33.1615 42.9527L47.0077 47.5681L47.1923 47.6143C47.3954 47.6553 47.6046 47.6553 47.8077 47.6143L47.9923 47.5681L61.8385 42.9527C62.1423 42.8467 62.4059 42.6494 62.5932 42.3878C62.7805 42.1261 62.8823 41.8129 62.8846 41.4912V33.7989H72.1154V66.1066C72.1154 66.5146 72.2775 66.9059 72.566 67.1944C72.8545 67.4829 73.2458 67.645 73.6538 67.645C74.0619 67.645 74.4532 67.4829 74.7417 67.1944C75.0302 66.9059 75.1923 66.5146 75.1923 66.1066C75.1923 65.1937 75.463 64.3014 75.9701 63.5424C76.4773 62.7834 77.1981 62.1918 78.0415 61.8425C78.8848 61.4932 79.8128 61.4018 80.7081 61.5799C81.6034 61.7579 82.4258 62.1975 83.0713 62.843C83.7167 63.4885 84.1563 64.3108 84.3344 65.2061C84.5125 66.1014 84.4211 67.0294 84.0717 67.8728C83.7224 68.7161 83.1309 69.437 82.3719 69.9441C81.6129 70.4513 80.7205 70.7219 79.8077 70.7219Z" fill="black"/>
<path d="M47.5 53.7989C47.3347 53.7983 47.1706 53.7713 47.0139 53.7189L42.3985 52.1804C42.2065 52.1166 42.0291 52.0155 41.8762 51.8831C41.7233 51.7507 41.598 51.5894 41.5074 51.4086C41.4168 51.2277 41.3628 51.0308 41.3483 50.829C41.3338 50.6273 41.3593 50.4246 41.4231 50.2327C41.4869 50.0408 41.588 49.8633 41.7204 49.7104C41.8528 49.5575 42.0141 49.4322 42.1949 49.3416C42.3758 49.2511 42.5727 49.197 42.7745 49.1825C42.9762 49.1681 43.1789 49.1935 43.3708 49.2573L47.5 50.6389L51.6292 49.2635C51.8212 49.1996 52.0238 49.1742 52.2256 49.1887C52.4273 49.2032 52.6242 49.2572 52.8051 49.3478C52.986 49.4384 53.1472 49.5637 53.2796 49.7166C53.4121 49.8695 53.5131 50.0469 53.5769 50.2389C53.6408 50.4308 53.6662 50.6334 53.6517 50.8352C53.6373 51.0369 53.5832 51.2339 53.4926 51.4147C53.4021 51.5956 53.2767 51.7568 53.1239 51.8893C52.971 52.0217 52.7935 52.1227 52.6016 52.1866L47.9862 53.725C47.8291 53.7754 47.665 53.8003 47.5 53.7989Z" fill="#3A98FF"/>
<path d="M47.5308 58.4142C47.1228 58.4162 46.7306 58.2561 46.4407 57.969C46.1507 57.682 45.9867 57.2915 45.9846 56.8834C45.9826 56.4754 46.1427 56.0833 46.4298 55.7933C46.7169 55.5034 47.1074 55.3393 47.5154 55.3373H47.5308C47.9388 55.3373 48.3301 55.4994 48.6187 55.7879C48.9072 56.0764 49.0693 56.4677 49.0693 56.8757C49.0693 57.2838 48.9072 57.6751 48.6187 57.9636C48.3301 58.2521 47.9388 58.4142 47.5308 58.4142Z" fill="#3A98FF"/>
<path d="M47.5308 63.0296C47.1228 63.0316 46.7306 62.8715 46.4407 62.5844C46.1507 62.2973 45.9867 61.9068 45.9846 61.4988C45.9826 61.0908 46.1427 60.6986 46.4298 60.4087C46.7169 60.1187 47.1074 59.9547 47.5154 59.9526H47.5308C47.9388 59.9526 48.3301 60.1147 48.6187 60.4032C48.9072 60.6918 49.0693 61.0831 49.0693 61.4911C49.0693 61.8991 48.9072 62.2904 48.6187 62.579C48.3301 62.8675 47.9388 63.0296 47.5308 63.0296Z" fill="#3A98FF"/>
<path d="M47.5308 67.6449C47.1228 67.647 46.7306 67.4868 46.4407 67.1998C46.1507 66.9127 45.9867 66.5222 45.9846 66.1141C45.9826 65.7061 46.1427 65.314 46.4298 65.024C46.7169 64.7341 47.1074 64.57 47.5154 64.568H47.5308C47.9388 64.568 48.3301 64.7301 48.6187 65.0186C48.9072 65.3071 49.0693 65.6984 49.0693 66.1065C49.0693 66.5145 48.9072 66.9058 48.6187 67.1943C48.3301 67.4828 47.9388 67.6449 47.5308 67.6449Z" fill="#3A98FF"/>
<path d="M42.9154 67.6449C42.5074 67.647 42.1152 67.4868 41.8253 67.1998C41.5353 66.9127 41.3713 66.5222 41.3692 66.1141C41.3672 65.7061 41.5273 65.314 41.8144 65.024C42.1015 64.7341 42.492 64.57 42.9 64.568H42.9154C43.3234 64.568 43.7147 64.7301 44.0032 65.0186C44.2917 65.3071 44.4538 65.6984 44.4538 66.1065C44.4538 66.5145 44.2917 66.9058 44.0032 67.1943C43.7147 67.4828 43.3234 67.6449 42.9154 67.6449Z" fill="#3A98FF"/>
<path d="M38.3 67.6449C37.892 67.647 37.4999 67.4868 37.2099 67.1998C36.9199 66.9127 36.7559 66.5222 36.7539 66.1141C36.7518 65.7061 36.912 65.314 37.199 65.024C37.4861 64.7341 37.8766 64.57 38.2846 64.568H38.3C38.708 64.568 39.0994 64.7301 39.3879 65.0186C39.6764 65.3071 39.8385 65.6984 39.8385 66.1065C39.8385 66.5145 39.6764 66.9058 39.3879 67.1943C39.0994 67.4828 38.708 67.6449 38.3 67.6449Z" fill="#3A98FF"/>
<path d="M52.1462 67.6449C51.7381 67.647 51.346 67.4868 51.056 67.1998C50.7661 66.9127 50.602 66.5222 50.6 66.1141C50.598 65.7061 50.7581 65.314 51.0452 65.024C51.3322 64.7341 51.7227 64.57 52.1308 64.568H52.1462C52.5542 64.568 52.9455 64.7301 53.234 65.0186C53.5225 65.3071 53.6846 65.6984 53.6846 66.1065C53.6846 66.5145 53.5225 66.9058 53.234 67.1943C52.9455 67.4828 52.5542 67.6449 52.1462 67.6449Z" fill="#3A98FF"/>
<path d="M56.7615 67.6449C56.3535 67.647 55.9614 67.4868 55.6714 67.1998C55.3814 66.9127 55.2174 66.5222 55.2154 66.1141C55.2133 65.7061 55.3734 65.314 55.6605 65.024C55.9476 64.7341 56.3381 64.57 56.7461 64.568H56.7615C57.1695 64.568 57.5608 64.7301 57.8494 65.0186C58.1379 65.3071 58.3 65.6984 58.3 66.1065C58.3 66.5145 58.1379 66.9058 57.8494 67.1943C57.5608 67.4828 57.1695 67.6449 56.7615 67.6449Z" fill="#3A98FF"/>
</svg>
