<svg width="80" height="80" viewBox="0 0 80 80" fill="none" xmlns="http://www.w3.org/2000/svg">
<g clip-path="url(#clip0_552_389)">
<path d="M7.92085 69.4769L7.01272 70.4378C6.83426 70.6268 6.84217 70.924 7.03118 71.1033C7.12261 71.1904 7.23865 71.2326 7.35646 71.2326C7.48041 71.2326 7.60613 71.1851 7.69931 71.0849L8.60745 70.1284C8.78679 69.9359 8.77888 69.6396 8.58898 69.4585C8.39822 69.28 8.10019 69.2862 7.92085 69.4769Z" fill="black"/>
<path d="M17.4575 60.778L19.3934 58.7332C19.5736 58.5451 19.5648 58.2462 19.3749 58.0668C19.1868 57.8875 18.887 57.8963 18.7103 58.0853L16.7736 60.1284C16.5942 60.3191 16.6013 60.6172 16.792 60.7974C16.8835 60.8835 16.9995 60.9257 17.1173 60.9257C17.2422 60.9266 17.3661 60.8747 17.4575 60.778Z" fill="black"/>
<path d="M24.873 51.5754L23.9648 52.5327C23.7864 52.7244 23.7952 53.0233 23.9824 53.2026C24.0756 53.2879 24.1916 53.331 24.3086 53.331C24.4334 53.331 24.5574 53.28 24.6505 53.1833L25.5578 52.2233C25.7371 52.0334 25.7292 51.7363 25.5402 51.5569C25.3512 51.3758 25.0523 51.3846 24.873 51.5754Z" fill="black"/>
<path d="M72.2233 69.4769C72.0448 69.2862 71.7441 69.2791 71.5551 69.4585C71.3679 69.6396 71.3573 69.9349 71.5375 70.1257L72.4457 71.0848C72.5371 71.1824 72.6619 71.2325 72.7876 71.2325C72.9046 71.2325 73.0215 71.1912 73.1103 71.1033C73.3011 70.924 73.3098 70.6268 73.1305 70.4352L72.2233 69.4769Z" fill="black"/>
<path d="M68.6268 65.6791C68.4483 65.4901 68.1512 65.4822 67.9604 65.6607C67.7714 65.84 67.7626 66.138 67.9428 66.327L69.8795 68.3728C69.9692 68.4712 70.0958 68.5213 70.2215 68.5213C70.3367 68.5213 70.4536 68.4774 70.5442 68.3912C70.7332 68.2128 70.742 67.9139 70.5626 67.7257L68.6268 65.6791Z" fill="black"/>
<path d="M63.3705 60.1284L61.4338 58.0853C61.2554 57.8954 60.9565 57.8866 60.7657 58.0668C60.5784 58.2462 60.5679 58.5451 60.7481 58.7332L62.6848 60.778C62.7771 60.8747 62.9028 60.9266 63.0285 60.9266C63.1455 60.9266 63.2624 60.8835 63.3529 60.7982C63.5402 60.6171 63.5507 60.3191 63.3705 60.1284Z" fill="black"/>
<path d="M55.8365 53.331C55.9534 53.331 56.0703 53.2871 56.1591 53.2009C56.3481 53.0207 56.3569 52.7244 56.1793 52.5328L55.2694 51.5745C55.091 51.3847 54.7921 51.3759 54.603 51.557C54.414 51.7363 54.407 52.0334 54.5846 52.2207L55.4927 53.1816C55.5859 53.28 55.7107 53.331 55.8365 53.331Z" fill="black"/>
<path d="M7.95251 64.1758C7.95251 63.9148 7.74152 63.7029 7.4813 63.7029H4.83867C4.57757 63.7029 4.36658 63.9148 4.36658 64.1758C4.36658 64.4352 4.57757 64.6479 4.83867 64.6479H7.4813C7.74152 64.6479 7.95251 64.4352 7.95251 64.1758Z" fill="black"/>
<path d="M17.294 63.7029H14.6901L15.8004 62.5327C15.9789 62.3429 15.971 62.044 15.7811 61.8646C15.5929 61.6862 15.294 61.6923 15.1156 61.8831L13.178 63.9279C12.9978 64.1178 13.0066 64.4167 13.1956 64.5952C13.2888 64.6813 13.4048 64.7235 13.5217 64.7235C13.6457 64.7235 13.7714 64.6743 13.8628 64.5758L14.1916 64.2286C14.2198 64.4624 14.4114 64.6479 14.6532 64.6479H17.2949C17.5551 64.6479 17.7679 64.4352 17.7679 64.1758C17.767 63.9147 17.5543 63.7029 17.294 63.7029Z" fill="black"/>
<path d="M56.5486 63.7029H53.9077C53.6448 63.7029 53.4338 63.9148 53.4338 64.1758C53.4338 64.4352 53.6448 64.6479 53.9077 64.6479H56.5486C56.8097 64.6479 57.0207 64.4352 57.0207 64.1758C57.0207 63.9148 56.8114 63.7029 56.5486 63.7029Z" fill="black"/>
<path d="M61.4558 63.7029H58.8132C58.5521 63.7029 58.3428 63.9148 58.3428 64.1758C58.3428 64.4352 58.5521 64.6479 58.8132 64.6479H61.4558C61.7169 64.6479 61.9279 64.4352 61.9279 64.1758C61.9279 63.9148 61.7169 63.7029 61.4558 63.7029Z" fill="black"/>
<path d="M51.643 63.7029H49.0022C48.7393 63.7029 48.5283 63.9148 48.5283 64.1758C48.5283 64.4352 48.7393 64.6479 49.0022 64.6479H51.643C51.9024 64.6479 52.1151 64.4352 52.1151 64.1758C52.1151 63.9148 51.9024 63.7029 51.643 63.7029Z" fill="black"/>
<path d="M41.8286 63.7029H39.1868C38.924 63.7029 38.7147 63.9148 38.7147 64.1758C38.7147 64.4352 38.924 64.6479 39.1868 64.6479H41.8286C42.0897 64.6479 42.3015 64.4352 42.3015 64.1758C42.3015 63.9148 42.0897 63.7029 41.8286 63.7029Z" fill="black"/>
<path d="M46.7358 63.7029H44.0932C43.8321 63.7029 43.6211 63.9148 43.6211 64.1758C43.6211 64.4352 43.8321 64.6479 44.0932 64.6479H46.7358C46.9969 64.6479 47.2079 64.4352 47.2079 64.1758C47.2079 63.9148 46.9969 63.7029 46.7358 63.7029Z" fill="black"/>
<path d="M71.7406 64.1758C71.7406 63.9148 71.5314 63.7029 71.2703 63.7029H68.6277C68.3666 63.7029 68.1556 63.9148 68.1556 64.1758C68.1556 64.4352 68.3666 64.6479 68.6277 64.6479H71.2703C71.5296 64.6479 71.7406 64.4352 71.7406 64.1758Z" fill="black"/>
<path d="M32.0158 63.7029H29.3732C29.1103 63.7029 28.9002 63.9148 28.9002 64.1758C28.9002 64.4352 29.1103 64.6479 29.3732 64.6479H32.0158C32.276 64.6479 32.487 64.4352 32.487 64.1758C32.487 63.9148 32.276 63.7029 32.0158 63.7029Z" fill="black"/>
<path d="M27.1086 63.7029H24.465C24.2048 63.7029 23.9938 63.9148 23.9938 64.1758C23.9938 64.4352 24.2048 64.6479 24.465 64.6479H27.1086C27.3688 64.6479 27.5798 64.4352 27.5798 64.1758C27.5798 63.9148 27.3697 63.7029 27.1086 63.7029Z" fill="black"/>
<path d="M75.5481 63.7029H73.5358C73.2747 63.7029 73.0602 63.9148 73.0602 64.1758C73.0602 64.4352 73.2747 64.6479 73.5358 64.6479H75.5481C75.8074 64.6479 76.0219 64.4352 76.0219 64.1758C76.0219 63.9148 75.8065 63.7029 75.5481 63.7029Z" fill="black"/>
<path d="M22.2013 63.7029H19.5587C19.2993 63.7029 19.0875 63.9148 19.0875 64.1758C19.0875 64.4352 19.2993 64.6479 19.5587 64.6479H22.2013C22.4624 64.6479 22.6743 64.4352 22.6743 64.1758C22.6743 63.9148 22.4633 63.7029 22.2013 63.7029Z" fill="black"/>
<path d="M36.9222 63.7029H34.2795C34.0193 63.7029 33.8074 63.9148 33.8074 64.1758C33.8074 64.4352 34.0184 64.6479 34.2795 64.6479H36.9222C37.1824 64.6479 37.3942 64.4352 37.3942 64.1758C37.3942 63.9148 37.1841 63.7029 36.9222 63.7029Z" fill="black"/>
<path d="M58.8132 17.1895H61.4558C61.7169 17.1895 61.9279 16.9803 61.9279 16.7183C61.9279 16.4572 61.7169 16.2471 61.4558 16.2471H58.8132C58.5521 16.2471 58.3428 16.4572 58.3428 16.7183C58.3428 16.9794 58.5529 17.1895 58.8132 17.1895Z" fill="black"/>
<path d="M44.0932 17.1895H46.7358C46.9969 17.1895 47.2079 16.9803 47.2079 16.7183C47.2079 16.4572 46.9969 16.2471 46.7358 16.2471H44.0932C43.8321 16.2471 43.6211 16.4572 43.6211 16.7183C43.6211 16.9794 43.8321 17.1895 44.0932 17.1895Z" fill="black"/>
<path d="M49.0022 17.1895H51.643C51.9024 17.1895 52.1151 16.9803 52.1151 16.7183C52.1151 16.4572 51.9024 16.2471 51.643 16.2471H49.0022C48.7393 16.2471 48.5283 16.4572 48.5283 16.7183C48.5283 16.9794 48.7393 17.1895 49.0022 17.1895Z" fill="black"/>
<path d="M53.9077 17.1895H56.5486C56.8097 17.1895 57.0207 16.9803 57.0207 16.7183C57.0207 16.4572 56.8114 16.2471 56.5486 16.2471H53.9077C53.6448 16.2471 53.4338 16.4572 53.4338 16.7183C53.4338 16.9794 53.6448 17.1895 53.9077 17.1895Z" fill="black"/>
<path d="M63.7205 17.1895H66.3648C66.4563 17.1895 66.5363 17.1561 66.6101 17.1112C66.6945 17.2018 66.8141 17.2598 66.9503 17.2598C67.2097 17.2598 67.4207 17.0497 67.4207 16.7877V14.1468C67.4207 13.8849 67.2097 13.6747 66.9503 13.6747C66.6892 13.6747 66.48 13.8849 66.48 14.1468V16.2699C66.4422 16.2602 66.4062 16.2471 66.3648 16.2471H63.7205C63.4611 16.2471 63.2501 16.4572 63.2501 16.7183C63.2501 16.9794 63.462 17.1895 63.7205 17.1895Z" fill="black"/>
<path d="M34.2795 17.1895H36.9222C37.1824 17.1895 37.3934 16.9803 37.3942 16.7183C37.3942 16.4572 37.1841 16.2471 36.9222 16.2471H34.2795C34.0193 16.2471 33.8074 16.4572 33.8074 16.7183C33.8083 16.9794 34.0193 17.1895 34.2795 17.1895Z" fill="black"/>
<path d="M29.3732 17.1895H32.0158C32.276 17.1895 32.487 16.9803 32.487 16.7183C32.487 16.4572 32.276 16.2471 32.0158 16.2471H29.3732C29.1103 16.2471 28.9002 16.4572 28.9002 16.7183C28.9002 16.9794 29.1103 17.1895 29.3732 17.1895Z" fill="black"/>
<path d="M14.6523 17.1895H17.294C17.5543 17.1895 17.767 16.9803 17.767 16.7183C17.767 16.4572 17.5543 16.2471 17.294 16.2471H14.6523C14.3912 16.2471 14.1793 16.4572 14.1793 16.7183C14.1793 16.9794 14.3912 17.1895 14.6523 17.1895Z" fill="black"/>
<path d="M9.74592 17.1895H12.1749C12.2453 17.2299 12.3217 17.2598 12.4088 17.2598C12.669 17.2598 12.8809 17.0497 12.8809 16.7877V14.1468C12.8809 13.8849 12.6699 13.6747 12.4088 13.6747C12.1477 13.6747 11.9367 13.8849 11.9367 14.1468V16.2471H9.74592C9.4857 16.2471 9.27295 16.4572 9.27295 16.7183C9.27295 16.9794 9.4857 17.1895 9.74592 17.1895Z" fill="black"/>
<path d="M4.83867 17.1895H7.4813C7.74152 17.1895 7.95251 16.9803 7.95251 16.7183C7.95251 16.4572 7.74152 16.2471 7.4813 16.2471H4.83867C4.57757 16.2471 4.36658 16.4572 4.36658 16.7183C4.36658 16.9794 4.57757 17.1895 4.83867 17.1895Z" fill="black"/>
<path d="M19.5587 17.1895H22.2013C22.4624 17.1895 22.6743 16.9803 22.6743 16.7183C22.6743 16.4572 22.4633 16.2471 22.2013 16.2471H19.5587C19.2993 16.2471 19.0875 16.4572 19.0875 16.7183C19.0875 16.9794 19.2993 17.1895 19.5587 17.1895Z" fill="black"/>
<path d="M68.6277 17.1895H71.2703C71.5296 17.1895 71.7406 16.9803 71.7406 16.7183C71.7406 16.4572 71.5314 16.2471 71.2703 16.2471H68.6277C68.3666 16.2471 68.1556 16.4572 68.1556 16.7183C68.1556 16.9794 68.3674 17.1895 68.6277 17.1895Z" fill="black"/>
<path d="M24.465 17.1895H27.1086C27.3688 17.1895 27.5789 16.9803 27.5798 16.7183C27.5798 16.4572 27.3697 16.2471 27.1086 16.2471H24.465C24.2048 16.2471 23.9938 16.4572 23.9938 16.7183C23.9938 16.9794 24.2048 17.1895 24.465 17.1895Z" fill="black"/>
<path d="M73.5349 17.1895H75.5472C75.8066 17.1895 76.0211 16.9803 76.0211 16.7183C76.0211 16.4572 75.8066 16.2471 75.5472 16.2471H73.5349C73.2738 16.2471 73.0593 16.4572 73.0593 16.7183C73.0593 16.9794 73.2747 17.1895 73.5349 17.1895Z" fill="black"/>
<path d="M48.9767 55.2141C49.2378 55.2141 49.4505 55.0022 49.4505 54.7429C49.4505 54.4809 49.2395 54.2699 48.9784 54.2699H46.3358C46.0747 54.2699 45.8637 54.4809 45.8637 54.7429C45.8637 55.0022 46.0747 55.2141 46.3358 55.2141H48.9767Z" fill="black"/>
<path d="M53.884 55.2141C54.1451 55.2141 54.3561 55.0022 54.3561 54.7429C54.3561 54.4809 54.1451 54.2699 53.884 54.2699H51.2413C50.982 54.2699 50.771 54.4809 50.771 54.7429C50.771 55.0022 50.982 55.2141 51.2413 55.2141H53.884Z" fill="black"/>
<path d="M34.2567 55.2141C34.5186 55.2141 34.7279 55.0022 34.7279 54.7429C34.7279 54.4809 34.5186 54.2699 34.2567 54.2699H31.614C31.3538 54.2699 31.1411 54.4809 31.1411 54.7429C31.1411 55.0022 31.3529 55.2141 31.614 55.2141H34.2567Z" fill="black"/>
<path d="M44.0694 55.2141C44.3323 55.2141 44.5433 55.0022 44.5433 54.7429C44.5433 54.4809 44.3323 54.2699 44.0694 54.2699H41.4286C41.1675 54.2699 40.9565 54.4809 40.9565 54.7429C40.9565 55.0022 41.1675 55.2141 41.4286 55.2141H44.0694Z" fill="black"/>
<path d="M29.3503 55.2141C29.6105 55.2141 29.8215 55.0022 29.8215 54.7429C29.8215 54.4809 29.6105 54.2699 29.3503 54.2699H26.7077C26.4466 54.2699 26.2365 54.4809 26.2365 54.7429C26.2365 55.0022 26.4466 55.2141 26.7077 55.2141H29.3503Z" fill="black"/>
<path d="M39.1648 55.2141C39.4233 55.2141 39.6369 55.0022 39.6369 54.7429C39.6369 54.4809 39.4241 54.2699 39.1648 54.2699H36.5222C36.2602 54.2699 36.0492 54.4809 36.0492 54.7429C36.0492 55.0022 36.2602 55.2141 36.5222 55.2141H39.1648Z" fill="black"/>
<path d="M12.4088 62.7402C12.1486 62.7402 11.9367 62.9539 11.9367 63.2132V63.7029H9.74592C9.4857 63.7029 9.27295 63.9147 9.27295 64.1758C9.27295 64.4352 9.48482 64.6479 9.74592 64.6479H11.9367V65.5464C11.7872 65.5218 11.6299 65.5605 11.5173 65.6783L9.58152 67.7249C9.39954 67.913 9.40921 68.2119 9.59998 68.3903C9.69141 68.4774 9.80745 68.5205 9.9235 68.5205C10.0483 68.5205 10.1732 68.4703 10.2664 68.3719L12.2022 66.3262C12.2119 66.3156 12.2154 66.3024 12.2242 66.2901C12.2804 66.3139 12.3428 66.3279 12.4079 66.3279C12.6681 66.3279 12.88 66.1161 12.88 65.8558V63.2123C12.88 62.9539 12.669 62.7402 12.4088 62.7402Z" fill="black"/>
<path d="M12.4088 67.6475C12.1486 67.6475 11.9367 67.8593 11.9367 68.1196V70.7631C11.9367 71.025 12.1486 71.2334 12.4088 71.2334C12.669 71.2334 12.8809 71.025 12.8809 70.7631V68.1196C12.88 67.8593 12.669 67.6475 12.4088 67.6475Z" fill="black"/>
<path d="M12.4088 23.4883C12.1486 23.4883 11.9367 23.6967 11.9367 23.9578V26.6022C11.9367 26.8615 12.1486 27.0734 12.4088 27.0734C12.669 27.0734 12.8809 26.8615 12.8809 26.6022V23.9578C12.88 23.6967 12.669 23.4883 12.4088 23.4883Z" fill="black"/>
<path d="M12.4088 57.8347C12.1486 57.8347 11.9367 58.0457 11.9367 58.3077V60.9494C11.9367 61.2105 12.1486 61.4215 12.4088 61.4215C12.669 61.4215 12.8809 61.2105 12.8809 60.9494V58.3077C12.88 58.0457 12.669 57.8347 12.4088 57.8347Z" fill="black"/>
<path d="M12.4088 12.3543C12.669 12.3543 12.8809 12.1415 12.8809 11.8813V9.23869C12.8809 8.97847 12.6699 8.7666 12.4088 8.7666C12.1477 8.7666 11.9367 8.97847 11.9367 9.23869V11.8813C11.9367 12.1415 12.1477 12.3543 12.4088 12.3543Z" fill="black"/>
<path d="M12.88 19.0532C12.88 18.7903 12.669 18.5802 12.4079 18.5802C12.1468 18.5802 11.9358 18.7903 11.9358 19.0532V21.6949C11.9358 21.9569 12.1477 22.1679 12.4079 22.1679C12.6681 22.1679 12.88 21.9569 12.88 21.6949V19.0532Z" fill="black"/>
<path d="M12.4088 43.1138C12.1486 43.1138 11.9367 43.3248 11.9367 43.5868V46.2294C11.9367 46.4914 12.1486 46.7024 12.4088 46.7024C12.669 46.7024 12.8809 46.4914 12.8809 46.2294V43.5868C12.88 43.3248 12.669 43.1138 12.4088 43.1138Z" fill="black"/>
<path d="M12.4088 38.2057C12.1486 38.2057 11.9367 38.4185 11.9367 38.6796V41.3214C11.9367 41.5833 12.1486 41.7934 12.4088 41.7934C12.669 41.7934 12.8809 41.5833 12.8809 41.3214V38.6796C12.88 38.4185 12.669 38.2057 12.4088 38.2057Z" fill="black"/>
<path d="M12.4088 52.9275C12.1486 52.9275 11.9367 53.1402 11.9367 53.3996V56.0431C11.9367 56.3033 12.1486 56.5143 12.4088 56.5143C12.669 56.5143 12.8809 56.3033 12.8809 56.0431V53.3996C12.88 53.1402 12.669 52.9275 12.4088 52.9275Z" fill="black"/>
<path d="M12.4088 33.3011C12.1486 33.3011 11.9367 33.5121 11.9367 33.7741V36.4158C11.9367 36.676 12.1486 36.887 12.4088 36.887C12.669 36.887 12.8809 36.676 12.8809 36.4158V33.7741C12.88 33.5121 12.669 33.3011 12.4088 33.3011Z" fill="black"/>
<path d="M12.4088 48.022C12.1486 48.022 11.9367 48.2321 11.9367 48.4941V51.1349C11.9367 51.3952 12.1486 51.607 12.4088 51.607C12.669 51.607 12.8809 51.3952 12.8809 51.1349V48.4941C12.88 48.2321 12.669 48.022 12.4088 48.022Z" fill="black"/>
<path d="M66.9503 38.2057C66.6892 38.2057 66.48 38.4185 66.48 38.6796V41.3214C66.48 41.5833 66.6892 41.7934 66.9503 41.7934C67.2096 41.7934 67.4206 41.5833 67.4206 41.3214V38.6796C67.4206 38.4185 67.2096 38.2057 66.9503 38.2057Z" fill="black"/>
<path d="M66.9503 33.3011C66.6892 33.3011 66.48 33.5121 66.48 33.7741V36.4158C66.48 36.676 66.6892 36.887 66.9503 36.887C67.2096 36.887 67.4206 36.676 67.4206 36.4158V33.7741C67.4206 33.5121 67.2096 33.3011 66.9503 33.3011Z" fill="black"/>
<path d="M66.48 19.0532V21.6949C66.48 21.9569 66.6892 22.1679 66.9503 22.1679C67.2096 22.1679 67.4206 21.9569 67.4206 21.6949V19.0532C67.4206 18.7903 67.2096 18.5802 66.9503 18.5802C66.6892 18.5802 66.48 18.7903 66.48 19.0532Z" fill="black"/>
<path d="M66.9503 12.3543C67.2096 12.3543 67.4206 12.1415 67.4206 11.8813V9.23869C67.4206 8.97847 67.2096 8.7666 66.9503 8.7666C66.6892 8.7666 66.48 8.97847 66.48 9.23869V11.8813C66.48 12.1415 66.6892 12.3543 66.9503 12.3543Z" fill="black"/>
<path d="M66.9503 67.6475C66.6892 67.6475 66.48 67.8593 66.48 68.1196V70.7631C66.48 71.025 66.6892 71.2334 66.9503 71.2334C67.2096 71.2334 67.4206 71.025 67.4206 70.7631V68.1196C67.4206 67.8593 67.2096 67.6475 66.9503 67.6475Z" fill="black"/>
<path d="M66.9503 57.8347C66.6892 57.8347 66.48 58.0457 66.48 58.3077V60.9494C66.48 61.2105 66.6892 61.4215 66.9503 61.4215C67.2096 61.4215 67.4206 61.2105 67.4206 60.9494V58.3077C67.4206 58.0457 67.2096 57.8347 66.9503 57.8347Z" fill="black"/>
<path d="M66.9503 62.7402C66.6892 62.7402 66.48 62.9538 66.48 63.2132V63.4119L65.0312 61.8804C64.851 61.6923 64.5538 61.6844 64.3648 61.8637C64.1741 62.0431 64.1653 62.3411 64.3464 62.5319L65.4558 63.7029H63.7213C63.462 63.7029 63.251 63.9147 63.251 64.1758C63.251 64.4352 63.462 64.6479 63.7213 64.6479H66.3657C66.371 64.6479 66.3763 64.6453 66.3815 64.6444C66.4141 64.6646 66.4448 64.6831 66.4809 64.6945V65.8567C66.4809 66.1169 66.6901 66.3288 66.9512 66.3288C67.2105 66.3288 67.4215 66.1169 67.4215 65.8567V63.2132C67.4207 62.9538 67.2097 62.7402 66.9503 62.7402Z" fill="black"/>
<path d="M66.9503 52.9275C66.6892 52.9275 66.48 53.1402 66.48 53.3996V56.0431C66.48 56.3033 66.6892 56.5143 66.9503 56.5143C67.2096 56.5143 67.4206 56.3033 67.4206 56.0431V53.3996C67.4206 53.1402 67.2096 52.9275 66.9503 52.9275Z" fill="black"/>
<path d="M66.9503 43.1138C66.6892 43.1138 66.48 43.3248 66.48 43.5868V46.2294C66.48 46.4914 66.6892 46.7024 66.9503 46.7024C67.2096 46.7024 67.4206 46.4914 67.4206 46.2294V43.5868C67.4206 43.3248 67.2096 43.1138 66.9503 43.1138Z" fill="black"/>
<path d="M66.9503 48.022C66.6892 48.022 66.48 48.2321 66.48 48.4941V51.1349C66.48 51.3952 66.6892 51.607 66.9503 51.607C67.2096 51.607 67.4206 51.3952 67.4206 51.1349V48.4941C67.4206 48.2321 67.2096 48.022 66.9503 48.022Z" fill="black"/>
<path d="M76.516 30.2488L67.5173 26.9161V26.9134L67.3424 26.8493C67.389 26.7763 67.4215 26.6945 67.4215 26.6022V23.9578C67.4215 23.6967 67.2105 23.4884 66.9512 23.4884C66.6901 23.4884 66.4809 23.6967 66.4809 23.9578V26.5328L41.265 17.1895H41.8285C42.0896 17.1895 42.3006 16.9803 42.3015 16.7183C42.3015 16.4572 42.0896 16.2471 41.8285 16.2471H39.1868C38.9239 16.2471 38.7147 16.4572 38.7147 16.7183C38.7147 16.88 38.7991 17.0137 38.9213 17.0989L38.8853 17.113C38.8826 17.1156 38.8791 17.1156 38.8747 17.1156L12.974 27.0471L12.5978 27.1912V27.2018C12.5978 27.2792 12.6514 27.3328 12.7191 27.3618C12.6505 27.3337 12.596 27.2792 12.596 27.2018V27.1921L4.60657 30.2559C3.73097 30.5926 3.29317 31.5745 3.62987 32.4501C3.96481 33.3266 4.94767 33.7653 5.82328 33.4277L11.9367 31.084V31.5069C11.9367 31.7688 12.1486 31.9807 12.4088 31.9807C12.669 31.9807 12.8809 31.7688 12.8809 31.5069V30.72L12.9749 30.684L13.5112 30.4809L13.5129 30.48L22.3956 44.1073C22.4228 44.1512 22.4554 44.1882 22.4914 44.2198V43.7987C22.4914 43.7196 22.516 43.6458 22.5591 43.5842C22.5169 43.6458 22.4923 43.7214 22.4923 43.7996V44.2207V54.1723C22.4343 54.1926 22.3806 54.226 22.3332 54.269H21.8022C21.542 54.269 21.3301 54.48 21.3301 54.742C21.3301 54.8959 21.4092 55.0268 21.5253 55.113L20.371 56.3323C20.1925 56.5214 20.2004 56.8185 20.3894 56.9996C20.4809 57.0866 20.5969 57.1279 20.7138 57.1279C20.8378 57.1279 20.9644 57.0778 21.0558 56.9803L22.7288 55.2132H24.4448C24.7042 55.2132 24.9178 55.0014 24.9178 54.742C24.9178 54.48 24.705 54.269 24.4448 54.269H23.2474V44.2207C23.2264 44.2383 23.2044 44.2576 23.1798 44.2743C23.2035 44.2585 23.2264 44.24 23.2474 44.2207C23.3143 44.16 23.3626 44.0879 23.3943 44.0079L23.3951 44.0062C23.4584 43.8409 23.4461 43.6493 23.3424 43.491C23.447 43.6501 23.4593 43.8409 23.3951 44.0062L29.847 41.5851V42.7745C29.847 42.9073 29.956 43.0154 30.0888 43.0154H32.2628C32.3947 43.0154 32.5028 42.9073 32.5028 42.7745V40.5908L33.5912 40.1829L33.9006 40.0651V40.0264C33.9006 39.9394 33.8312 39.8717 33.7477 39.8717C33.8329 39.8717 33.9006 39.9394 33.9006 40.0264V40.0651L39.9622 37.7943L46.2611 40.1389L46.2628 40.1407V42.8554H45.6967C45.6105 42.8554 45.542 42.924 45.542 43.0119V45.5253C45.542 45.6106 45.6105 45.68 45.6967 45.68H47.0874C47.1736 45.68 47.2422 45.6106 47.2422 45.5253V43.0119C47.2422 42.924 47.1736 42.8554 47.0874 42.8554H46.5723V40.255L46.5705 40.2541V40.0264C46.5723 39.9385 46.5037 39.8717 46.4176 39.8708H46.4193C46.5055 39.8708 46.5723 39.9385 46.5723 40.0255V40.255L47.6096 40.6409V39.8348L40.0932 37.0348C40.0079 37.0022 39.9138 37.004 39.8294 37.0348L32.5028 39.7829V38.8458C32.5028 38.7104 32.3938 38.604 32.2628 38.604H31.4584V37.9754L39.9613 34.7868L48.7358 38.051V36.844L40.1591 33.6519C40.0316 33.6044 39.8918 33.6044 39.7635 33.6519L31.4584 36.7649V34.2137L31.1534 34.3288L31.4576 34.2128V34.182C31.4576 34.0484 31.3485 33.9411 31.2167 33.9411C31.3503 33.9411 31.4593 34.0493 31.4593 34.1811V34.2128L39.9622 31.0242L48.7358 34.291V36.844V38.051L49.2202 38.2339V37.0251V34.473L51.5692 35.346V37.8989L51.9472 38.0405V39.2484V39.8189H53.4804L54.4949 40.1961L58.4132 41.6554L59.0224 40.6743L55.7204 39.4444V39.8198C55.7204 40.0282 55.5507 40.197 55.3442 40.197H55.3424C55.5499 40.197 55.7204 40.029 55.7204 39.8198V39.4462L55.3424 39.3047L54.9644 39.164V39.4418H52.4677L53.1428 39.6932L52.4659 39.4418L52.3217 39.389V38.1811V35.6273V34.0563H52.4299L52.4316 34.0572H53.3688L54.0422 34.0563H54.0835H54.9644V34.9987L55.3424 35.1394V36.7499L55.7204 36.8906V35.2792V33.6792C55.7204 33.4699 55.5507 33.3003 55.3424 33.3003H54.0853V31.3882L62.7666 34.6207L61.1165 37.288L61.6228 37.4778L61.0954 38.8932L61.0936 38.8923L61.6228 37.4778L61.1165 37.288L61.1147 37.2888L55.7204 35.2792V36.8906L60.3042 38.5987L59.0224 40.6743L58.414 41.6545L57.3081 43.4444L57.7784 43.6194C57.9085 43.6686 57.9894 43.789 58.0088 43.9262C57.9903 43.7917 57.9094 43.6686 57.7767 43.6194L57.3063 43.4444L57.3046 43.4462L50.2646 40.8238V38.8431C50.2646 38.7095 50.1565 38.6031 50.0246 38.6031H49.2193V38.8431V38.8449V39.0849H49.7828V40.6418L50.0246 40.7323V41.5359L50.2646 41.6273L57.1191 44.1803L57.1226 44.1829C57.1534 44.2629 57.2017 44.3323 57.2685 44.3912V44.3956C57.2923 44.4159 57.3187 44.4378 57.3477 44.4554C57.44 44.5126 57.542 44.5398 57.6448 44.5398C57.7688 44.5398 57.8883 44.4923 57.9885 44.4159C57.8892 44.4941 57.7705 44.5398 57.6448 44.5398C57.5455 44.5398 57.4409 44.5134 57.3477 44.4554C57.3187 44.4378 57.294 44.4167 57.2668 44.3956V53.9209V54.2075C57.2343 54.226 57.1982 54.2409 57.171 54.2682L57.1692 54.269H56.1477C55.8848 54.269 55.6773 54.48 55.6773 54.742C55.6773 55.0014 55.8848 55.2132 56.1477 55.2132H57.4162L59.0883 56.9794C59.1806 57.0778 59.3063 57.1279 59.4303 57.1279C59.5472 57.1279 59.6642 57.0858 59.7547 56.9996C59.9437 56.8185 59.9543 56.5214 59.7732 56.3306L58.6189 55.113C58.734 55.026 58.8132 54.8959 58.8132 54.742C58.8132 54.48 58.6022 54.269 58.3411 54.269H58.022V44.3956V43.9737L58.0237 43.9754V44.3956C58.0633 44.3605 58.0976 44.3192 58.1266 44.2717L59.622 41.855C59.5569 41.9007 59.4795 41.9244 59.4022 41.9385C59.4795 41.9244 59.5551 41.9007 59.622 41.855C59.7178 41.7934 59.7934 41.6967 59.8382 41.5833C59.8523 41.5411 59.8602 41.4998 59.8672 41.4576C59.8892 41.2774 59.8224 41.1007 59.694 40.9776C59.8224 41.1007 59.8918 41.2765 59.869 41.4576L66.4782 30.7772V31.5069C66.4782 31.7688 66.6874 31.9807 66.9485 31.9807C67.2079 31.9807 67.4189 31.7688 67.4189 31.5069V30.5011L67.498 30.5301L67.4998 30.531L75.331 33.4321C75.5253 33.5051 75.7257 33.5376 75.9217 33.5376C76.6118 33.5376 77.2589 33.1148 77.5138 32.429C77.8452 31.5534 77.3969 30.575 76.516 30.2488ZM46.9336 43.164V45.3706H45.8523V43.164H46.2646V43.1658H46.574V43.011V43.164H46.9336ZM59.3099 41.9526C59.2773 41.9526 59.243 41.9403 59.2105 41.9341C59.243 41.9403 59.2756 41.9526 59.3099 41.9526ZM67.5156 29.1025V29.1042L67.4215 29.2554V29.2528L67.5156 29.1025V27.9543C67.5156 27.8515 67.4312 27.7671 67.3266 27.7653C67.3336 27.7653 67.3389 27.7706 67.345 27.7706C67.4391 27.7847 67.5156 27.8585 67.5156 27.9543L67.5165 29.0989L67.5156 29.1025ZM67.3248 27.7671C67.2835 27.7671 67.2457 27.7873 67.2044 27.797C67.2457 27.7873 67.2835 27.7653 67.3266 27.7653L67.3248 27.7671ZM67.4206 29.9921C67.4347 29.9842 67.4496 29.986 67.4602 29.9754C67.4496 29.986 67.4347 29.986 67.4206 29.9939V29.9921ZM67.5173 27.2C67.5173 27.3038 67.4329 27.3882 67.3283 27.3882C67.2237 27.3882 67.1393 27.3038 67.1393 27.2009C67.1393 27.3055 67.2237 27.3882 67.3283 27.3882C67.4312 27.3882 67.5173 27.3047 67.5173 27.2ZM12.88 29.993C12.9046 29.9763 12.9204 29.9596 12.9362 29.9359C12.9213 29.9605 12.9055 29.9781 12.88 29.993ZM12.974 27.1992V27.2009C12.974 27.3038 12.8896 27.3882 12.7868 27.3882C12.8896 27.3882 12.974 27.3047 12.974 27.1992ZM12.4756 27.8567C12.2804 27.9851 12.1899 28.2128 12.2285 28.429C12.1907 28.2128 12.2804 27.9833 12.4756 27.8567ZM12.9749 29.6589V29.6572V27.9543C12.9749 27.8585 12.9011 27.7873 12.8088 27.7741C12.9002 27.7873 12.9758 27.8585 12.9758 27.9561L12.9749 29.6589ZM16.6593 33.862L16.9899 34.7447L17.3732 34.6014L16.9899 34.7464L16.6593 33.862ZM19.4233 38.7279L20.0791 38.4809L19.2343 37.1842L17.5173 34.5477L26.1573 31.3073V33.3011H26.1538L24.7701 33.302C24.5617 33.302 24.3912 33.4708 24.3912 33.68V35.2493L19.2325 37.1842L20.0773 38.4809L24.3912 36.8633V39.4137V39.4154L21.4136 40.5328L21.0092 40.6857C20.9362 40.713 20.8721 40.7534 20.8193 40.8044C20.8729 40.7534 20.9371 40.713 21.0101 40.684L21.4136 40.5328L20.0773 38.4809L19.4233 38.7279ZM26.9107 33.8919C26.9099 33.9508 26.8923 34.0071 26.8685 34.0572H27.5762H27.7899V35.5895V38.1407V38.1425V39.3512V39.4427H27.5455H25.1481V39.1323V36.5803V34.9671L25.1472 34.0563H26.1951L26.8685 34.0572C26.8932 34.0071 26.9107 33.9517 26.9107 33.8919ZM30.3305 41.404V40.5987V39.0858H30.9749V38.8449V38.8475V39.0858L31.4584 39.0866H32.022V39.964V40.771V42.5328H30.3314L30.3305 41.404ZM30.9749 36.9477V38.1565V38.6022H30.0888C29.956 38.6022 29.847 38.7104 29.847 38.844V40.7789L23.2 43.2704L22.0483 41.5042L25.5323 40.1978H24.7701C24.5617 40.1978 24.3912 40.0282 24.3912 39.8207V39.8189C24.3912 40.0273 24.5609 40.1961 24.7701 40.1961H25.5305H28.167C28.3754 40.1961 28.5433 40.0282 28.5433 39.8189V39.0673V37.8585V35.3073L30.974 34.3956L30.9749 36.9477ZM51.9472 35.4858H51.9455V33.8761H51.9472V35.4858ZM51.9472 33.3011C51.738 33.3011 51.5692 33.4699 51.5692 33.68V33.7345V33.7372L40.225 29.5112C40.0545 29.4479 39.8681 29.4479 39.6967 29.5112L28.5442 33.6941V33.68C28.5442 33.4708 28.3762 33.3011 28.1679 33.3011H26.9116V31.0251L39.9657 26.1301L53.3318 31.1077V31.1095V33.3011V33.3038V33.68V33.3011H51.9472ZM54.0844 29.3767V26.393C54.0844 26.1855 53.9165 26.015 53.7063 26.015C53.4989 26.015 53.3301 26.1847 53.3301 26.393V29.0919L40.291 24.2383C40.0782 24.1583 39.8444 24.1583 39.6307 24.2383L26.9099 29.0101V26.3912C26.9099 26.1829 26.7402 26.015 26.531 26.015C26.3226 26.015 26.1556 26.182 26.1556 26.3912V29.2923L16.4598 32.9275L17.5156 34.5469L16.4598 32.9293L16.3279 32.9794V32.9776L16.4598 32.9275L14.5934 30.0642L39.9727 20.3332L65.7108 29.869L66.8457 28.0326C66.8993 27.9464 66.9732 27.8805 67.0549 27.8348C66.9723 27.8796 66.9002 27.9455 66.8475 28.0317L65.7108 29.869V29.8708L63.7811 32.9873L54.0844 29.3767ZM67.8092 28.6295L67.6923 28.8159L67.8092 28.6277C67.8488 28.5618 67.8743 28.4906 67.8866 28.4176C67.876 28.4915 67.8505 28.5627 67.8092 28.6295Z" fill="black"/>
<path d="M28.5441 39.069L30.9749 38.1565V36.9477L28.5441 37.8585V39.069Z" fill="black"/>
<path d="M33.5921 42.8545H33.025C32.9398 42.8545 32.8721 42.9231 32.8721 43.011V45.5244C32.8721 45.6097 32.9398 45.6792 33.025 45.6792H34.4167C34.5037 45.6792 34.5723 45.6097 34.5723 45.5244V43.011C34.5723 42.9231 34.5037 42.8545 34.4167 42.8545H33.9015V40.0642L33.5921 40.182V42.8545ZM34.2637 45.3697H33.1798V43.1631H33.5921V43.1649H33.9015V43.1631H34.2637V45.3697Z" fill="black"/>
<path d="M50.0255 42.7736V41.5385L49.7837 41.4497V42.5319H48.0941V40.8202V40.0158V39.0857H48.7358L49.2202 39.0866V38.8475V38.8449V38.6049V38.2347L48.7358 38.0536V38.6031H47.8505C47.7187 38.6031 47.6105 38.7112 47.6105 38.8449V39.8356V40.6409V42.7745C47.6105 42.9073 47.7187 43.0154 47.8523 43.0154H50.0264C50.1582 43.0154 50.2664 42.9073 50.2664 42.7745V41.6299L50.0264 41.5411L50.0255 42.7736Z" fill="black"/>
<path d="M49.7837 41.4488L50.0254 41.5376V40.7341L49.7837 40.6453V41.4488Z" fill="black"/>
<path d="M51.5692 39.8215C51.5692 40.0281 51.7371 40.1987 51.9455 40.1987H54.4949L53.4804 39.8215H51.9455V39.8198V39.2484V38.0413L51.5692 37.9015L49.2202 37.0259V38.2347L51.5692 39.1095V39.8215Z" fill="black"/>
<path d="M55.7213 36.8914L55.3433 36.7516V39.3046L55.7213 39.4444V36.8914Z" fill="black"/>
<path d="M55.3433 36.7508V35.1402L54.9653 35.0004V36.6119V39.1639L55.3433 39.3046V36.7508Z" fill="black"/>
<path d="M5 32L40 18.5L76.5 32" stroke="#3A98FF" stroke-width="4" stroke-linecap="round"/>
<path d="M66.5 29.5L57.5 44V54.5" stroke="#3A98FF" stroke-width="1.5" stroke-linecap="round"/>
<path d="M23 44H23.75V43.7797L23.6309 43.5944L23 44ZM22.25 54.5C22.25 54.9142 22.5858 55.25 23 55.25C23.4142 55.25 23.75 54.9142 23.75 54.5H22.25ZM13.3691 30.4056L22.3691 44.4056L23.6309 43.5944L14.6309 29.5944L13.3691 30.4056ZM22.25 44V54.5H23.75V44H22.25Z" fill="#3A98FF"/>
</g>
<defs>
<clipPath id="clip0_552_389">
<rect width="80" height="80" fill="white"/>
</clipPath>
</defs>
</svg>
