<svg width="80" height="80" viewBox="0 0 80 80" fill="none" xmlns="http://www.w3.org/2000/svg">
<path d="M33.7391 41.9235C33.4485 41.9235 33.1703 41.8078 32.9656 41.6032L29.3469 37.9844C28.9203 37.5578 28.9203 36.8641 29.3469 36.4375L30.1328 35.6516L29.736 33.8219C29.6578 33.4578 29.7688 33.0797 30.0313 32.8172L31.7281 31.1203C32.1547 30.6938 32.8485 30.6938 33.275 31.1203L39.8281 37.6735C40.0328 37.8781 40.1485 38.1563 40.1485 38.4469C40.1485 38.7375 40.0328 39.0156 39.8281 39.2203L38.1313 40.9172C37.8688 41.1797 37.4891 41.2922 37.1266 41.2125L35.2969 40.8156L34.511 41.6016C34.3078 41.8078 34.0297 41.9235 33.7391 41.9235ZM31.6672 37.211L33.7391 39.2828L34.1735 38.8485C34.436 38.586 34.8156 38.4735 35.1781 38.5532L37.0078 38.95L37.5094 38.4485L32.5031 33.4422L32.0016 33.9438L32.3985 35.7735C32.4766 36.1375 32.3656 36.5157 32.1031 36.7782L31.6672 37.211Z" fill="#3A98FF"/>
<path d="M20.3641 50.8891C20.3235 50.8891 20.2844 50.8876 20.2438 50.8829C19.9141 50.8469 19.6188 50.6626 19.4406 50.3813C17.5813 47.4485 18.0156 43.5344 20.4766 41.0751L23.875 37.761C23.8797 37.7563 23.886 37.7501 23.8906 37.7454L26.5875 35.2204L27.3938 34.4485C27.8235 34.0376 28.5031 34.0438 28.9235 34.4641L36.6313 42.1719C36.8391 42.3797 36.9547 42.6626 36.9516 42.9563C36.9485 43.2501 36.8266 43.5313 36.6141 43.7344L29.7141 50.3438C29.2844 50.7563 28.6047 50.7485 28.1844 50.3282L24.7813 46.9251L21.1391 50.5672C20.9313 50.7751 20.6516 50.8891 20.3641 50.8891ZM24.7797 44.286C25.0594 44.286 25.3391 44.3922 25.5531 44.6063L28.9735 48.0266L34.2938 42.9297L28.1328 36.7688L28.0953 36.8047C28.0922 36.8079 28.0891 36.811 28.086 36.8126L25.3938 39.3344L22.0141 42.6313C20.6235 44.0219 20.15 46.0829 20.6985 47.9157L24.0078 44.6063C24.2188 44.3938 24.5 44.286 24.7797 44.286Z" fill="#3A98FF"/>
<path d="M50.6422 71.8938C48.9953 71.8938 47.4438 71.0938 46.4891 69.7547L33.7703 52.4626C33.4125 51.9766 33.5172 51.2907 34.0032 50.9329C34.4891 50.575 35.175 50.6797 35.5328 51.1657L48.2578 68.4641C48.261 68.4688 48.2657 68.4735 48.2688 68.4797C48.8219 69.2579 49.686 69.7047 50.6422 69.7047C51.4172 69.7047 52.1453 69.4016 52.6953 68.8532C53.2453 68.3047 53.5469 67.5735 53.5469 66.7969C53.5469 66.0204 53.2438 65.2907 52.6953 64.7407L36.0985 48.1454L33.8282 50.4157C33.4016 50.8422 32.7078 50.8422 32.2813 50.4157C31.8547 49.9891 31.8547 49.2954 32.2813 48.8688L35.325 45.825C35.7516 45.3985 36.4453 45.3985 36.8719 45.825L54.2407 63.1938C55.2032 64.1563 55.7328 65.436 55.7328 66.7969C55.7328 68.1579 55.2032 69.4375 54.2407 70.4C53.2797 71.3625 52.0016 71.8938 50.6422 71.8938Z" fill="#3A98FF"/>
<path d="M30.775 71.8938C29.5063 71.8938 28.2813 71.3891 27.3797 70.4875C25.5094 68.6172 25.5094 65.5735 27.3797 63.7031L34.5688 56.5141C34.9954 56.0875 35.6891 56.0875 36.1157 56.5141C36.5422 56.9406 36.5422 57.6344 36.1157 58.061L28.9266 65.25C27.9094 66.2688 27.9094 67.925 28.9266 68.9422C29.4594 69.475 30.1641 69.7453 30.9157 69.7047C31.6657 69.6641 32.3391 69.3188 32.8094 68.7313L39.5532 60.3266L36.3829 56.0156C36.025 55.5297 36.1297 54.8438 36.6157 54.486C37.1032 54.1281 37.7875 54.2328 38.1454 54.7188L41.8141 59.7063C42.1078 60.1047 42.0969 60.6516 41.786 61.0391L34.5172 70.1C33.6657 71.1625 32.3969 71.8141 31.0375 71.8891C30.9485 71.8906 30.861 71.8938 30.775 71.8938Z" fill="#3A98FF"/>
<path d="M44.9032 56.4969C44.6235 56.4969 44.3438 56.3906 44.1297 56.1766L40.2922 52.3391C39.8656 51.9125 39.8656 51.2188 40.2922 50.7922L45.0547 46.0281L43.8485 41.5266C43.7469 41.1484 43.8547 40.7469 44.1313 40.4703L49.886 34.7156C50.1625 34.4391 50.5656 34.3313 50.9422 34.4328L55.05 35.5344C55.4282 35.6359 55.7219 35.9313 55.8235 36.3078C55.925 36.6859 55.8172 37.0875 55.5406 37.3641L51.3469 41.5578L52.025 44.0906L54.5578 44.7688L58.7516 40.575C59.0282 40.2984 59.4313 40.1906 59.8078 40.2922C60.186 40.3938 60.4797 40.6875 60.5813 41.0656L61.6828 45.1734C61.7844 45.5516 61.6766 45.9531 61.4 46.2297L55.6453 51.9844C55.3688 52.2609 54.9656 52.3688 54.5891 52.2672L49.8422 50.9953L47.4047 54.0344C47.0266 54.5047 46.3375 54.5813 45.8672 54.2031C45.3953 53.825 45.3203 53.1359 45.6985 52.6656L48.5828 49.0703C48.8547 48.7312 49.3 48.5859 49.7188 48.6984L54.5453 49.9922L59.4063 45.1313L58.9594 43.4625L55.6594 46.7625C55.3828 47.0391 54.9813 47.1469 54.6031 47.0453L50.85 46.0406C50.4719 45.9391 50.1781 45.6438 50.0766 45.2672L49.0719 41.5141C48.9703 41.1359 49.0781 40.7344 49.3547 40.4578L52.6547 37.1578L50.986 36.7109L46.125 41.5719L47.3313 46.0734C47.4328 46.4516 47.325 46.8531 47.0485 47.1297L42.6125 51.5672L45.6766 54.6313C46.1031 55.0578 46.1031 55.7516 45.6766 56.1781C45.4625 56.3891 45.1828 56.4969 44.9032 56.4969Z" fill="#3A98FF"/>
<path d="M76.7969 38.9719H64.8547C64.5641 38.9719 64.2844 38.8563 64.0781 38.6485L40 14.4063L15.9219 38.6485C15.7172 38.8547 15.4375 38.9719 15.1453 38.9719H3.20312C2.76094 38.9719 2.3625 38.7063 2.19375 38.2985C2.02344 37.8906 2.11562 37.4203 2.42812 37.1078L32.4844 6.84065C32.6891 6.6344 32.9688 6.51721 33.2609 6.51721H46.7391C47.0297 6.51721 47.3094 6.63284 47.5156 6.84065L51.6516 11.0063C52.0766 11.4344 52.075 12.1266 51.6469 12.5531C51.2188 12.9781 50.525 12.9766 50.1 12.5485L46.2844 8.70627H33.7156L5.83125 36.7844H14.6906L39.2234 12.0828C39.4281 11.8766 39.7078 11.7594 40 11.7594C40.2922 11.7594 40.5703 11.875 40.7766 12.0828L65.3094 36.7844H74.1687L56.2016 18.6922C55.7766 18.2641 55.7781 17.5703 56.2062 17.1453C56.6344 16.7203 57.3281 16.7219 57.7531 17.15L77.5719 37.1063C77.8828 37.4203 77.975 37.8891 77.8063 38.2969C77.6375 38.7063 77.2391 38.9719 76.7969 38.9719Z" fill="#1B3954"/>
<path d="M54.2859 16.3234C54.0078 16.3234 53.7281 16.2172 53.5156 16.0062C53.0875 15.5812 53.0844 14.8875 53.5094 14.4594L53.5312 14.4375C53.9562 14.0094 54.65 14.0062 55.0781 14.4312C55.5062 14.8562 55.5094 15.55 55.0844 15.9781L55.0625 16C54.8484 16.2156 54.5672 16.3234 54.2859 16.3234Z" fill="#1B3954"/>
<path d="M14.7938 58.7766C14.5063 58.7766 14.225 58.6594 14.0203 58.4563C13.9703 58.4063 13.925 58.35 13.8844 58.2907C13.8453 58.2313 13.8109 58.1672 13.7844 58.1016C13.7563 58.0344 13.7359 57.9657 13.7219 57.8969C13.7078 57.8266 13.7 57.7532 13.7 57.6829C13.7 57.611 13.7078 57.5391 13.7219 57.4688C13.7359 57.4 13.7563 57.3297 13.7844 57.2641C13.8109 57.1985 13.8453 57.1344 13.8844 57.075C13.925 57.0157 13.9703 56.9594 14.0203 56.9094C14.0719 56.8594 14.1266 56.8141 14.1875 56.7735C14.2469 56.7344 14.3094 56.7 14.3766 56.6735C14.4422 56.6454 14.5109 56.625 14.5813 56.611C14.7219 56.5829 14.8672 56.5813 15.0078 56.611C15.0781 56.625 15.1469 56.6454 15.2125 56.6735C15.2781 56.7 15.3422 56.7344 15.4016 56.7735C15.4609 56.8141 15.5172 56.8594 15.5672 56.9094C15.6188 56.9594 15.6641 57.0157 15.7031 57.075C15.7438 57.1344 15.7766 57.1985 15.8047 57.2641C15.8313 57.3297 15.8531 57.4 15.8672 57.4688C15.8813 57.5391 15.8875 57.611 15.8875 57.6829C15.8875 57.7532 15.8813 57.8266 15.8672 57.8969C15.8531 57.9657 15.8313 58.0344 15.8047 58.1016C15.7766 58.1672 15.7438 58.2313 15.7031 58.2907C15.6641 58.35 15.6188 58.4063 15.5672 58.4563C15.5172 58.5063 15.4609 58.5516 15.4016 58.5922C15.3422 58.6313 15.2781 58.6657 15.2125 58.6922C15.1469 58.7204 15.0781 58.7407 15.0078 58.7547C14.9375 58.7688 14.8656 58.7766 14.7938 58.7766Z" fill="#1B3954"/>
<path d="M65.2063 77.8907H14.7938C14.1891 77.8907 13.7 77.4016 13.7 76.7969V62.4969C13.7 61.8922 14.1891 61.4032 14.7938 61.4032C15.3984 61.4032 15.8875 61.8922 15.8875 62.4969V75.7032H64.111V47.2844C64.111 46.6797 64.6 46.1907 65.2047 46.1907C65.8094 46.1907 66.2985 46.6797 66.2985 47.2844V76.7969C66.3 77.4016 65.8094 77.8907 65.2063 77.8907Z" fill="#1B3954"/>
<path d="M14.7938 53.9625C14.1891 53.9625 13.7 53.4735 13.7 52.8688V37.8782C13.7 37.311 14.1313 36.8438 14.6844 36.7891L39.2234 12.0828C39.4281 11.8766 39.7078 11.7594 40 11.7594C40.2922 11.7594 40.5703 11.875 40.7766 12.0828L65.3156 36.7891C65.8688 36.8438 66.3 37.3094 66.3 37.8782C66.3 38.4828 65.811 38.9719 65.2063 38.9719H64.8547C64.5641 38.9719 64.2844 38.8563 64.0781 38.6485L40 14.4063L15.9219 38.6485C15.9109 38.6594 15.9 38.6703 15.8875 38.6813V52.8688C15.8875 53.4735 15.3984 53.9625 14.7938 53.9625Z" fill="#1B3954"/>
</svg>
