<svg width="24" height="24" viewBox="0 0 24 24" fill="none" xmlns="http://www.w3.org/2000/svg">
<path d="M11.6464 10.7421L12 11.0957L12.3536 10.7421L17.9364 5.15927C18.1861 4.90955 18.591 4.90955 18.8407 5.15927C19.0905 5.40899 19.0905 5.81387 18.8407 6.06359L13.2579 11.6464L12.9043 12L13.2579 12.3536L18.8407 17.9364C19.0905 18.1861 19.0905 18.591 18.8407 18.8407C18.591 19.0905 18.1861 19.0905 17.9364 18.8407L12.3536 13.2579L12 12.9043L11.6464 13.2579L6.06359 18.8407C5.81387 19.0905 5.40899 19.0905 5.15927 18.8407C4.90955 18.591 4.90955 18.1861 5.15927 17.9364L10.7421 12.3536L11.0957 12L10.7421 11.6464L5.15927 6.06359C4.90955 5.81387 4.90955 5.40899 5.15927 5.15927C5.40899 4.90955 5.81387 4.90955 6.06359 5.15927L11.6464 10.7421Z" fill="#292929" stroke="black"/>
</svg>
