<svg width="133" height="54" viewBox="0 0 133 54" fill="none" xmlns="http://www.w3.org/2000/svg">
<path d="M7.96 53H1.34V29.56H7.96V38.84H13.1V29.56H19.72V53H13.1V43.44H7.96V53ZM33.8752 53L32.9752 49.26H27.2952L26.5352 53H20.6552L26.7552 31.18L26.2752 29.56H34.5352L41.2152 53H33.8752ZM29.8752 36.44L28.1152 45.18H31.9952L29.8752 36.44ZM45.9641 53L39.3441 29.56H46.7241L48.4641 37.64L50.2641 46.12L51.9641 37.64L53.7641 29.56H59.0241L53.2241 53H45.9641ZM65.6348 45.2V53H58.9948V29.56H61.6348C62.2748 29.56 63.2282 29.5333 64.4948 29.48C65.7615 29.4133 66.8082 29.38 67.6348 29.38C70.5148 29.38 72.6615 30.0133 74.0748 31.28C75.5015 32.5467 76.2148 34.4867 76.2148 37.1C76.2148 38.6467 75.8748 40.02 75.1948 41.22C74.5282 42.42 73.6415 43.3733 72.5348 44.08C73.1348 44.2267 73.6482 44.5667 74.0748 45.1C74.5148 45.6333 74.8548 46.2667 75.0948 47C75.3348 47.72 75.5415 48.4533 75.7148 49.2C75.9015 49.9333 76.1082 50.66 76.3348 51.38C76.5748 52.1 76.8348 52.64 77.1148 53H69.7348C69.5882 52.8133 69.4748 52.2933 69.3948 51.44C69.3148 50.5733 69.2015 49.54 69.0548 48.34C68.9215 47.1267 68.7282 46.1133 68.4748 45.3C68.4482 45.3 68.4148 45.3 68.3748 45.3C68.1215 45.3 67.8482 45.3 67.5548 45.3C67.2748 45.2867 67.0282 45.2733 66.8148 45.26C66.6015 45.2467 66.3748 45.2333 66.1348 45.22C65.9082 45.2067 65.7415 45.2 65.6348 45.2ZM65.6348 41.48H66.2748C66.6082 41.48 66.8882 41.4667 67.1148 41.44C67.3415 41.4133 67.5882 41.3667 67.8548 41.3C68.1348 41.22 68.3615 41.1 68.5348 40.94C68.7215 40.78 68.8948 40.5733 69.0548 40.32C69.2148 40.0667 69.3348 39.74 69.4148 39.34C69.4948 38.94 69.5348 38.4733 69.5348 37.94V36.36C69.5348 35.2 69.2282 34.3933 68.6148 33.94C68.0148 33.4733 67.1482 33.24 66.0148 33.24H65.6348V41.48ZM82.6908 53V45.68L76.0508 29.56H83.6308L85.6908 35.6L87.0708 40.54L88.2108 35.6L89.7708 29.56H95.7308L89.8708 45.56V53H82.6908ZM103.007 53.42C101.981 53.42 101.021 53.3267 100.127 53.14C99.2475 52.9667 98.5075 52.7333 97.9075 52.44C97.3075 52.1467 96.8142 51.8667 96.4275 51.6C96.0542 51.3333 95.7408 51.0667 95.4875 50.8L95.9875 45.94C96.5342 46.6733 97.2675 47.3133 98.1875 47.86C99.1075 48.3933 100.101 48.66 101.167 48.66C102.234 48.66 103.001 48.5467 103.468 48.32C103.947 48.0933 104.187 47.68 104.187 47.08C104.187 46.44 103.914 45.8933 103.368 45.44C102.834 44.9867 101.908 44.44 100.587 43.8C100.107 43.56 99.7008 43.3467 99.3675 43.16C99.0342 42.96 98.5875 42.64 98.0275 42.2C97.4808 41.7467 97.0342 41.28 96.6875 40.8C96.3408 40.3067 96.0342 39.68 95.7675 38.92C95.5008 38.1467 95.3675 37.32 95.3675 36.44C95.3675 31.68 98.0542 29.3 103.427 29.3C104.281 29.3 105.081 29.3933 105.827 29.58C106.587 29.7533 107.181 29.9467 107.607 30.16C108.034 30.3733 108.421 30.6267 108.767 30.92C109.127 31.2 109.354 31.4 109.447 31.52C109.541 31.6267 109.608 31.7133 109.648 31.78L108.648 35.64C108.127 35.0267 107.474 34.5733 106.688 34.28C105.914 33.9733 105.174 33.82 104.468 33.82C102.761 33.82 101.907 34.3533 101.907 35.42C101.907 35.7 101.961 35.9533 102.067 36.18C102.174 36.4067 102.347 36.6133 102.587 36.8C102.828 36.9867 103.048 37.1467 103.248 37.28C103.461 37.4133 103.748 37.58 104.108 37.78C104.481 37.9667 104.761 38.12 104.948 38.24C106.894 39.0667 108.321 40.0467 109.228 41.18C110.147 42.3133 110.607 43.6933 110.607 45.32C110.607 47.96 109.954 49.9733 108.648 51.36C107.354 52.7333 105.474 53.42 103.007 53.42ZM119.347 53H112.727V29.56H119.347V38.84H124.487V29.56H131.107V53H124.487V43.44H119.347V53Z" fill="#FFA502"/>
<g clip-path="url(#clip0_635_161)">
<path d="M130.86 25.1801L66.91 0.840088L1.61 25.1801H17.95L66.82 6.96009L114.6 25.1401L114.51 25.1701H130.86V25.1801Z" fill="#FFA502"/>
<path d="M98.84 1.56647L99 11.5L87.83 7V2C87.75 1.06 88.06 0.0764728 89 0.00647282H97.01C97.95 -0.0735272 98.77 0.626473 98.84 1.56647Z" fill="#FFA502"/>
<rect x="62" y="14" width="4" height="4" fill="#FFA502"/>
<rect x="62" y="19" width="4" height="4" fill="#FFA502"/>
<rect x="67" y="14" width="4" height="4" fill="#FFA502"/>
<rect x="67" y="19" width="4" height="4" fill="#FFA502"/>
</g>
<defs>
<clipPath id="clip0_635_161">
<rect width="132" height="25" fill="white"/>
</clipPath>
</defs>
</svg>
