<svg width="131" height="25" viewBox="0 0 131 25" fill="none" xmlns="http://www.w3.org/2000/svg">
<path d="M6.96 24H0.34V0.56H6.96V9.84H12.1V0.56H18.72V24H12.1V14.44H6.96V24ZM32.8752 24L31.9752 20.26H26.2952L25.5352 24H19.6552L25.7552 2.18L25.2752 0.56H33.5352L40.2152 24H32.8752ZM28.8752 7.44L27.1152 16.18H30.9952L28.8752 7.44ZM44.9641 24L38.3441 0.56H45.7241L47.4641 8.64L49.2641 17.12L50.9641 8.64L52.7641 0.56H58.0241L52.2241 24H44.9641ZM64.6348 16.2V24H57.9948V0.56H60.6348C61.2748 0.56 62.2282 0.533334 63.4948 0.480001C64.7615 0.413334 65.8082 0.380001 66.6348 0.380001C69.5148 0.380001 71.6615 1.01333 73.0748 2.28C74.5015 3.54667 75.2148 5.48667 75.2148 8.1C75.2148 9.64667 74.8748 11.02 74.1948 12.22C73.5282 13.42 72.6415 14.3733 71.5348 15.08C72.1348 15.2267 72.6482 15.5667 73.0748 16.1C73.5148 16.6333 73.8548 17.2667 74.0948 18C74.3348 18.72 74.5415 19.4533 74.7148 20.2C74.9015 20.9333 75.1082 21.66 75.3348 22.38C75.5748 23.1 75.8348 23.64 76.1148 24H68.7348C68.5882 23.8133 68.4748 23.2933 68.3948 22.44C68.3148 21.5733 68.2015 20.54 68.0548 19.34C67.9215 18.1267 67.7282 17.1133 67.4748 16.3C67.4482 16.3 67.4148 16.3 67.3748 16.3C67.1215 16.3 66.8482 16.3 66.5548 16.3C66.2748 16.2867 66.0282 16.2733 65.8148 16.26C65.6015 16.2467 65.3748 16.2333 65.1348 16.22C64.9082 16.2067 64.7415 16.2 64.6348 16.2ZM64.6348 12.48H65.2748C65.6082 12.48 65.8882 12.4667 66.1148 12.44C66.3415 12.4133 66.5882 12.3667 66.8548 12.3C67.1348 12.22 67.3615 12.1 67.5348 11.94C67.7215 11.78 67.8948 11.5733 68.0548 11.32C68.2148 11.0667 68.3348 10.74 68.4148 10.34C68.4948 9.94 68.5348 9.47333 68.5348 8.94V7.36C68.5348 6.2 68.2282 5.39333 67.6148 4.94C67.0148 4.47333 66.1482 4.24 65.0148 4.24H64.6348V12.48ZM81.6908 24V16.68L75.0508 0.56H82.6308L84.6908 6.6L86.0708 11.54L87.2108 6.6L88.7708 0.56H94.7308L88.8708 16.56V24H81.6908ZM102.007 24.42C100.981 24.42 100.021 24.3267 99.1275 24.14C98.2475 23.9667 97.5075 23.7333 96.9075 23.44C96.3075 23.1467 95.8142 22.8667 95.4275 22.6C95.0542 22.3333 94.7408 22.0667 94.4875 21.8L94.9875 16.94C95.5342 17.6733 96.2675 18.3133 97.1875 18.86C98.1075 19.3933 99.1008 19.66 100.167 19.66C101.234 19.66 102.001 19.5467 102.468 19.32C102.947 19.0933 103.187 18.68 103.187 18.08C103.187 17.44 102.914 16.8933 102.368 16.44C101.834 15.9867 100.908 15.44 99.5875 14.8C99.1075 14.56 98.7008 14.3467 98.3675 14.16C98.0342 13.96 97.5875 13.64 97.0275 13.2C96.4808 12.7467 96.0342 12.28 95.6875 11.8C95.3408 11.3067 95.0342 10.68 94.7675 9.92C94.5008 9.14667 94.3675 8.32 94.3675 7.44C94.3675 2.68 97.0542 0.300001 102.427 0.300001C103.281 0.300001 104.081 0.393334 104.827 0.580001C105.587 0.753333 106.181 0.946666 106.607 1.16C107.034 1.37333 107.421 1.62667 107.767 1.92C108.127 2.2 108.354 2.4 108.447 2.52C108.541 2.62667 108.608 2.71333 108.648 2.78L107.648 6.64C107.127 6.02667 106.474 5.57333 105.688 5.28C104.914 4.97333 104.174 4.82 103.468 4.82C101.761 4.82 100.907 5.35333 100.907 6.42C100.907 6.7 100.961 6.95333 101.067 7.18C101.174 7.40667 101.347 7.61333 101.587 7.8C101.828 7.98667 102.048 8.14667 102.248 8.28C102.461 8.41333 102.748 8.58 103.108 8.78C103.481 8.96667 103.761 9.12 103.948 9.24C105.894 10.0667 107.321 11.0467 108.228 12.18C109.147 13.3133 109.607 14.6933 109.607 16.32C109.607 18.96 108.954 20.9733 107.648 22.36C106.354 23.7333 104.474 24.42 102.007 24.42ZM118.347 24H111.727V0.56H118.347V9.84H123.487V0.56H130.107V24H123.487V14.44H118.347V24Z" fill="white"/>
</svg>
