<svg width="106" height="106" viewBox="0 0 106 106" fill="none" xmlns="http://www.w3.org/2000/svg">
<g filter="url(#filter0_d_707_468)">
<circle cx="49" cy="49" r="49" fill="#D9D9D9"/>
</g>
<path d="M49 23.5C64.74 23.5 77.5 34.72 77.5 48.57C77.5 53.86 75.64 58.76 72.46 62.8V74.92L63.87 69.96C59.54 72.29 54.45 73.64 49 73.64C33.26 73.64 20.5 62.42 20.5 48.57C20.5 34.73 33.26 23.5 49 23.5Z" fill="#FCF7C8"/>
<path d="M72.46 77.42C72.89 77.42 73.32 77.31 73.71 77.09C74.48 76.64 74.96 75.82 74.96 74.92V63.64C78.26 59.16 80 53.96 80 48.57C80 33.37 66.09 21 49 21C31.91 21 18 33.37 18 48.57C18 63.77 31.91 76.14 49 76.14C54.19 76.14 59.27 74.99 63.79 72.81L71.2 77.09C71.6 77.3 72.03 77.42 72.46 77.42ZM63.87 67.46C63.46 67.46 63.05 67.56 62.68 67.76C58.58 69.97 53.84 71.14 49 71.14C34.66 71.14 23 61.02 23 48.57C23 36.13 34.66 26 49 26C63.34 26 75 36.13 75 48.57C75 53.11 73.44 57.5 70.49 61.25C70.14 61.69 69.96 62.23 69.96 62.79V70.58L65.12 67.79C64.73 67.57 64.3 67.46 63.87 67.46Z" fill="#186F9F"/>
<path d="M72.46 77.42C73.84 77.42 74.96 76.3 74.96 74.92V63.64C78.26 59.16 80 53.96 80 48.57C80 33.37 66.09 21 49 21C47.62 21 46.5 22.12 46.5 23.5C46.5 24.88 47.62 26 49 26C63.34 26 75 36.12 75 48.57C75 53.11 73.44 57.5 70.49 61.25C70.14 61.69 69.96 62.23 69.96 62.79V74.91C69.96 76.3 71.08 77.42 72.46 77.42Z" fill="#60ACD5"/>
<path d="M55.788 38.7606L38.7891 55.7595C37.8133 56.7353 37.8215 58.3273 38.8073 59.3132C39.7932 60.299 41.3852 60.3072 42.361 59.3314L59.3528 42.3396C60.3286 41.3638 60.3205 39.7717 59.3346 38.7859C58.3488 37.8 56.7638 37.7848 55.788 38.7606Z" fill="#FFA502"/>
<path d="M38.7606 42.369L55.7595 59.3678C56.7353 60.3436 58.3273 60.3355 59.3132 59.3497C60.299 58.3638 60.3072 56.7718 59.3314 55.796L42.3396 38.8042C41.3638 37.8284 39.7717 37.8365 38.7859 38.8224C37.8 39.8082 37.7848 41.3932 38.7606 42.369Z" fill="#FFA502"/>
<defs>
<filter id="filter0_d_707_468" x="0" y="0" width="106" height="106" filterUnits="userSpaceOnUse" color-interpolation-filters="sRGB">
<feFlood flood-opacity="0" result="BackgroundImageFix"/>
<feColorMatrix in="SourceAlpha" type="matrix" values="0 0 0 0 0 0 0 0 0 0 0 0 0 0 0 0 0 0 127 0" result="hardAlpha"/>
<feOffset dx="4" dy="4"/>
<feGaussianBlur stdDeviation="2"/>
<feComposite in2="hardAlpha" operator="out"/>
<feColorMatrix type="matrix" values="0 0 0 0 0 0 0 0 0 0 0 0 0 0 0 0 0 0 0.25 0"/>
<feBlend mode="normal" in2="BackgroundImageFix" result="effect1_dropShadow_707_468"/>
<feBlend mode="normal" in="SourceGraphic" in2="effect1_dropShadow_707_468" result="shape"/>
</filter>
</defs>
</svg>
